<svg id="edit" xmlns="http://www.w3.org/2000/svg" width="17.539" height="17.805" viewBox="0 0 17.539 17.805">
  <path id="Path_1466" data-name="Path 1466" d="M12.177,91.021a.646.646,0,0,0-.641.651v5.205a.646.646,0,0,1-.641.651H1.923a.646.646,0,0,1-.641-.651V87.768a.646.646,0,0,1,.641-.651H7.05a.651.651,0,0,0,0-1.3H1.923A1.94,1.94,0,0,0,0,87.768v9.109a1.94,1.94,0,0,0,1.923,1.952H10.9a1.94,1.94,0,0,0,1.923-1.952V91.672a.645.645,0,0,0-.641-.651Zm0,0" transform="translate(0 -81.024)" fill="#707070"/>
  <path id="Path_1467" data-name="Path 1467" d="M182.356,73.41a.331.331,0,0,0-.088.166l-.453,2.3a.33.33,0,0,0,.088.294.318.318,0,0,0,.227.095.3.3,0,0,0,.063-.006l2.266-.46a.317.317,0,0,0,.164-.089l5.071-5.148-2.266-2.3Zm0,0" transform="translate(-174.189 -66.195)" fill="#707070"/>
  <path id="Path_1468" data-name="Path 1468" d="M394.6.977a1.586,1.586,0,0,0-2.266,0l-.887.9,2.266,2.3.887-.9a1.644,1.644,0,0,0,0-2.3Zm0,0" transform="translate(-377.528 -0.501)" fill="#707070"/>
</svg>
